<svg version="1.0" xmlns="http://www.w3.org/2000/svg" width="933.333" height="933.333" viewBox="0 0 700 700"><path d="M316 1.1c-56.9 5.7-122.4 31.2-174.3 68.1C47.7 136-3 240.5.3 360.5c1.7 62.3 18 119.8 48.6 171.3 32.8 55.5 83.9 101.7 140.6 127.3 23.8 10.9 37.5 11.7 37.5 2.5 0-7.5-11.2-20-36.5-40.8-21.7-17.8-31.6-29.2-37-42.7-4.3-10.4-5.5-19.4-6.5-46.1-1.9-49.5-6.9-67.9-23.6-86.1-11.8-12.8-16.9-25.4-18-44.4-1.2-19.9 3.5-34.3 15.6-47 11.4-12 18.4-29.3 21.5-53.3.8-6.4 2-15.3 2.6-19.7 4.6-35.9 27-76.6 58.6-106.5 18.6-17.7 36.9-30.4 59.8-41.6 32.3-15.7 62.3-22.4 95-21.1 73.8 3.1 150.5 54.2 183.1 122.2 9.8 20.4 13.9 35.4 16.4 59.5 3 28.4 10.3 47.7 22.7 60.5 11 11.3 15.4 23.5 15.4 42.5 0 20.7-5.7 36.2-18.6 50-8.1 8.6-12 15.3-15.8 27.5-4.3 13.7-5.8 25.4-6.7 53-1 28.2-2.4 38.4-6.9 50-5.4 14.1-14.6 24.8-37.1 43.4-28.9 23.8-41.3 39.4-35.8 44.9 2 2 11 1.4 18.9-1.3 8.9-3 25.1-11.2 38-19 50.5-30.8 95-81.5 125.4-143 36-72.7 46.4-141 32.4-212.5C663.3 153.9 549.6 38.5 411.6 7.6 390 2.7 374.2.9 349 .5c-12.9-.2-27.8.1-33 .6z"/><path d="M335 156c-48 10.2-104 38.6-104 52.8 0 15.1 78 43.2 119.8 43.2 26.5 0 68.7-10.9 97.6-25.1 17-8.4 23.6-14.8 21.4-21-4.6-13.4-62.9-41.4-103.5-49.8-12.2-2.5-20-2.6-31.3-.1zM197.7 262.2c-5.4 5.5-9.1 25-8.6 45.3.4 10.6.7 12.7 2.5 15.2 4.7 6.3 12.2 9 31.9 11.4 5.7.7 46.5 1.3 109.8 1.6 131.3.6 155.8-.4 169.5-7.4 7.6-3.8 9.4-7.4 10-20.2.6-12.2-1.2-28.3-3.8-35.5-2.6-6.9-7.3-11.2-13.4-12.1-7.6-1.2-17.6 1.8-37.7 11.1-7.5 3.5-17.6 7.7-22.5 9.3-48.1 16.1-125.4 15.7-171.3-.9-5.8-2.1-15.6-6.1-21.8-8.9-13.2-6-26.3-10-35.5-10.8-6.1-.5-6.8-.4-9.1 1.9zM216.5 380.1c-30.6.7-46.6 2-55.2 4.4-4.3 1.3-5.6 2.2-8.2 6.2-1.7 2.5-3.1 5.9-3.1 7.3 0 8.8 14.3 15 43 18.5 22.8 2.7 50.7 3.5 129.3 3.5H400v29.7c0 31.6 1 42.7 5 55.5 8.5 27.6 23 7.6 23-32 0-5.9.5-15.8 1-22 1.9-23.9 8.2-29 39.5-32.2 35.5-3.6 51.1-6.5 63-12 10.3-4.6 12.1-8.9 4.8-11-34.5-9.8-211.5-18.7-319.8-15.9z"/><path d="M189.3 499.7c.5 40.4.8 43.6 6.1 57.7 3.2 8.3 7 13.9 13.9 20.3 15.2 13.8 39.5 20.5 85.5 23.4 25.5 1.6 114 .6 131.7-1.5 60.9-7.1 80.8-23.2 85.4-69.1 2.1-20.5 1-40.2-3-52.9-3.9-12.7-13-18.1-23.4-14.1-9.6 3.6-13.9 13.5-15.4 35-1.4 20.1-6.1 31.6-17.6 43.1-4.4 4.5-8.3 7.2-14.5 10.2-10.2 4.8-16.3 6.2-27.8 6.2-17.1 0-31-5.7-43.2-17.9-10.4-10.2-15.7-21-19.6-39.6-3.5-17.3-5.7-22.9-10.9-28.1-9.1-9.1-21.1-10.4-95.8-10.4h-51.9l.5 37.7zM316 645.1c-18.8.9-30.7 3.1-36 6.9-7.9 5.7-5.7 20.5 4.5 29.9 13.9 12.6 40.9 19.1 74 17.7 28.7-1.2 50.1-7.5 61.5-18.2 6-5.6 8-9.7 8-16.3 0-13.1-13.7-18.3-53-20.1-23.1-1.1-33.8-1-59 .1z"/></svg>