<svg aria-hidden="true" style="width:0;height:0;position:absolute;overflow:hidden" xmlns="http://www.w3.org/2000/svg"><defs><symbol id="icon-telegram" viewBox="0 0 32 32"><path d="M32 16c0 8.837-7.163 16-16 16S0 24.837 0 16 7.163 0 16 0s16 7.163 16 16z"/><path fill="#fff" d="m12.867 18.376-.317 4.169c.455 0 .651-.183.888-.401l2.13-1.901 4.414 3.018c.81.421 1.381.199 1.6-.696l2.897-12.673c.258-1.117-.433-1.554-1.221-1.28L6.226 14.698c-1.162.422-1.145 1.026-.198 1.301l4.355 1.264 10.114-5.907c.476-.295.909-.132.553.163l-8.182 6.856z"/></symbol><symbol id="icon-logo" viewBox="0 0 127 32"><path fill="#fff" style="fill:var(--color2,#fff)" d="M31.36 16.32C31.36 24.98 24.483 32 16 32S.64 24.98.64 16.32 7.517.64 16 .64s15.36 7.02 15.36 15.68z"/><path d="M11.849.561C4.444 2.804 0 8.635 0 16.003c0 6.022 3.091 11.277 8.179 13.904 2.64 1.345 3.027.384.579-1.474-1.738-1.409-2.061-2.05-2.061-4.421 0-1.666-.386-3.011-.966-3.524-1.158-.961-1.288-3.46-.128-4.357.45-.384.901-1.666.965-2.819.323-4.228 4.895-8.201 9.467-8.201s9.144 3.972 9.466 8.201c.064 1.153.515 2.435.966 2.819 1.158.897 1.03 3.396-.129 4.357-.579.513-.966 1.858-.966 3.524 0 2.371-.321 3.012-2.06 4.421-2.705 2.115-1.932 2.883 1.094 1.025 4.251-2.627 7.406-8.33 7.406-13.391 0-10.124-10.561-18.325-19.964-15.506z"/><path d="M12.687 7.994c-1.16.513-2.125 1.154-2.125 1.538 0 .705 3.478 1.987 5.474 1.987s5.474-1.281 5.474-1.987c0-.768-3.993-2.499-5.603-2.499-.644.064-2.125.448-3.22.961zm33.164 3.332c-.966.256-1.158 1.089-1.158 5.702v5.382h4.572l-.193-5.574c-.193-5.83-.451-6.28-3.22-5.51zm7.535.32c-2.125 1.154-2.898 2.563-2.898 5.318 0 3.78 2.061 5.574 5.86 5.318 2.576-.192 2.833-.385 3.027-1.987s.064-1.73-1.932-1.602c-2.061.192-2.125.064-2.125-2.051s.129-2.243 1.997-2.05c1.545.128 2.125-.128 2.382-1.089.129-.641 0-1.538-.387-1.923-.901-.897-4.25-.897-5.924.064zm7.664.064c-.194.513-.258 3.012-.129 5.638l.193 4.742H65.3c3.864 0 4.186-.128 4.379-1.474.193-1.217-.064-1.409-2.06-1.409-1.288 0-2.319-.32-2.319-.641 0-.385.902-.641 1.932-.641 1.481 0 1.932-.256 1.932-1.281s-.451-1.281-1.932-1.281c-1.03 0-1.932-.32-1.932-.641 0-.385.837-.641 1.868-.641 1.804 0 3.027-1.409 2.254-2.627-.58-.961-7.985-.705-8.371.256zm12.943-.192c-2.125.833-2.962 2.307-3.027 4.998-.065 4.613 1.803 6.215 6.633 5.766 1.868-.128 2.189-.448 2.189-1.794 0-1.409-.257-1.602-2.061-1.409-1.546.128-2.125-.064-2.447-1.089-.58-1.987.644-3.588 2.705-3.588 1.224 0 1.868-.384 1.996-1.217.451-2.051-2.833-3.011-5.989-1.666zm7.921-.256c-.323.256-.515 2.883-.515 5.83v5.382l2.06-.192c1.61-.128 2.19-.577 2.512-1.795l.386-1.602.515 1.73c.387 1.474.837 1.795 2.512 1.795 2.769 0 3.091-.449 1.932-2.691-.708-1.41-.837-2.115-.322-2.627.837-.833.902-3.652.129-4.87-.644-1.025-8.371-1.858-9.208-.961zm5.28 3.46c0 .705-.257 1.281-.644 1.281-.322 0-.644-.576-.644-1.281s.322-1.282.644-1.282c.387 0 .644.577.644 1.282zm6.247-3.396c-.258.192-.451 2.819-.451 5.766v5.318h4.186c4.057 0 4.186-.064 4.186-1.602 0-1.346-.322-1.602-1.932-1.602-1.03 0-1.932-.32-1.932-.641 0-.385.708-.641 1.61-.641 1.159 0 1.61-.321 1.61-1.282s-.451-1.281-1.61-1.281c-.902 0-1.61-.32-1.61-.641 0-.384.902-.641 1.932-.641 1.61 0 1.932-.256 1.932-1.602 0-1.538-.193-1.602-3.735-1.602-2.061 0-3.992.192-4.186.448zm13.009-.064c-1.16.32-4.122 8.842-3.542 10.252.515 1.281 3.413 1.153 4.186-.192.579-1.089.644-1.089 1.803 0 1.482 1.281 4.701 1.474 4.701.256 0-.384-.644-2.947-1.482-5.574-1.288-4.228-1.674-4.805-3.027-4.933-.902 0-2.061.064-2.64.192zm1.803 5.83c-.193.641-.322.256-.322-.769 0-1.089.129-1.538.322-1.153.129.448.129 1.345 0 1.922zm7.47-5.766c-.58.192-.837 1.986-.837 5.702v5.382h1.868c1.61 0 1.932-.321 2.189-1.795.257-1.666.257-1.666.772-.32.258.833.902 1.474 1.352 1.474.515 0 1.224-.641 1.546-1.474.515-1.346.58-1.346.58.384.065 1.602.257 1.795 2.061 1.602l1.996-.192.065-5.318c.129-4.933.064-5.318-1.288-5.638-2.061-.512-3.799.705-4.379 3.076l-.451 2.115-.708-2.243c-.902-3.012-2.254-3.78-4.765-2.755zm-106.707.641c-.193.256-.387 1.089-.387 1.922 0 1.474.064 1.474 7.406 1.474 7.341 0 7.405 0 7.405-1.474 0-2.179-.579-2.435-2.64-1.409-2.319 1.217-7.213 1.217-9.531 0-1.03-.513-1.997-.705-2.254-.513zm-1.868 5.702c-1.03 1.089.708 1.538 5.731 1.538h5.409v2.243c0 1.217.322 2.243.644 2.243.386 0 .644-.961.644-2.179 0-2.115.129-2.243 2.576-2.435 1.416-.128 2.576-.512 2.576-.832 0-.705-16.872-1.282-17.581-.577z"/><path d="M8.629 23.308c0 3.524 1.224 4.229 7.406 4.229s7.405-.705 7.405-4.229c0-1.538-.322-2.179-.966-2.179-.579 0-.965.577-.965 1.538 0 3.588-4.895 3.908-5.603.384-.322-1.858-.515-1.922-3.799-1.922H8.629v2.179zm3.993 7.24c.387 2.051 6.955 1.859 6.955-.128 0-.705-.837-.961-3.606-.961-3.027 0-3.542.192-3.348 1.089z"/></symbol><symbol id="icon-greater-sign" viewBox="0 0 19 32"><path d="M9.163 4.516c.418.408 4.502 4.695 4.502 4.695a1.095 1.095 0 0 1 0 1.576s-4.084 4.289-4.502 4.695c-.418.408-1.17.436-1.615 0-.446-.434-.481-1.041 0-1.574L11.295 10 7.548 6.092c-.481-.533-.446-1.141 0-1.576s1.197-.409 1.615 0z"/></symbol><symbol id="icon-github" viewBox="0 0 32 32"><path d="M32 16c0 8.837-7.163 16-16 16S0 24.837 0 16 7.163 0 16 0s16 7.163 16 16z"/><path fill="#fff" d="M16 6.588c-5.17 0-9.412 4.242-9.412 9.412 0 4.411 3.096 8.419 7.206 9.412v-3.113a2.314 2.314 0 0 1-1.196-.031c-.556-.164-1.008-.535-1.344-1.099-.214-.36-.593-.753-.988-.724l-.097-1.098c.856-.073 1.594.521 2.033 1.258.196.328.421.52.709.605.278.083.577.043.925-.08.088-.697.408-.958.649-1.327-2.452-.365-3.429-1.666-3.816-2.692-.514-1.364-.238-3.066.67-4.143.018-.021.05-.075.038-.113-.417-1.259.09-2.3.109-2.41.481.141.559-.143 2.089.786l.264.159c.111.066.075.028.186.019a7.787 7.787 0 0 1 1.97-.276h.006a8.021 8.021 0 0 1 2.002.284l.086.009c-.008-.002.024-.006.075-.037 1.911-1.158 1.842-.779 2.355-.946.019.111.519 1.169.106 2.411-.056.171 1.656 1.739.708 4.256-.388 1.026-1.365 2.328-3.816 2.693.314.48.692.734.69 1.722v3.886c4.109-.993 7.206-5 7.206-9.412 0-5.17-4.242-9.412-9.412-9.412z"/></symbol><symbol id="icon-facebook" viewBox="0 0 32 32"><path d="M16 32c8.837 0 16-7.163 16-16S24.837 0 16 0 0 7.163 0 16s7.163 16 16 16z"/><path fill="#fff" d="M20.446 15.981h-2.611V25.6H13.88v-9.619H12v-3.379h1.88v-2.187c0-1.564.739-4.014 3.991-4.014l2.929.012v3.281h-2.125c-.348 0-.839.176-.839.922v1.989h2.955l-.345 3.377z"/></symbol><symbol id="icon-advantages-3" viewBox="0 0 28 32"><path stroke="#FFA5BA" stroke-width=".5" d="M6.128.069C3.206.681.938 3.082.197 6.347c-.271 1.14-.259 3.337.013 4.586.604 2.772 1.948 5.233 4.068 7.37 1.899 1.921 3.563 3.085 6.202 4.298l1.38.648V32h1.48v-8.271l.37.108a1.547 1.547 0 0 0 .751-.002l-.011.002.37-.109v8.271h1.48v-8.763l1.318-.6c2.553-1.176 4.402-2.449 6.202-4.273 2.874-2.917 4.34-6.23 4.34-9.832.013-3.949-2.059-7.154-5.314-8.246-.691-.24-1.048-.276-2.355-.264-1.368.012-1.677.06-2.712.384-1.22.397-2.417 1.021-3.205 1.668l-.456.384-.666-.492C11.738.705 9.987.093 7.929.009c-.716-.024-1.53 0-1.8.06zm2.811 1.489c.518.096 1.22.3 1.59.444.789.324 2.108 1.152 2.626 1.645.801.756 1.024.744 1.936-.072 1.43-1.297 3.736-2.185 5.634-2.185 2.577 0 4.932 2.017 5.684 4.862a9.28 9.28 0 0 1 .271 1.812c.049 1.08.013 1.116-1.664 1.752-1.357.516-2.491.768-4.439.984-1.245.144-1.504.216-1.886.493-.789.588-.913 1.02-.913 3.469 0 1.837-.024 2.185-.209 2.377-.259.288-.716.276-1.024-.024-.234-.228-.246-.396-.246-2.821 0-2.689-.074-3.145-.58-3.685-.111-.12-.986-.588-1.935-1.056-1.073-.504-2.145-1.128-2.787-1.62C7.903 5.616 6.534 4.956 3.994 4.56a36.576 36.576 0 0 1-1.369-.24c-.111-.084.555-.936 1.159-1.464 1.43-1.273 3.058-1.681 5.154-1.297zM4.858 6.191c1.258.312 2.675 1.02 3.97 1.981.543.396 1.233.9 1.542 1.128.826.612 2.194 1.38 3.23 1.812.506.216.986.468 1.073.576.111.132.147.888.147 2.773 0 2.269.038 2.653.235 3.073.407.864 1.06 1.26 2.059 1.26.641 0 1.085-.192 1.553-.685.531-.54.592-.876.592-3.168 0-2.605-.025-2.557 1.43-2.677 1.479-.132 3.316-.529 4.537-.973.616-.228 1.147-.384 1.171-.348.136.132-.789 2.485-1.331 3.397-.863 1.477-1.541 2.317-2.848 3.542-1.899 1.776-4.513 3.3-7.176 4.213l-.962.336-.949-.336c-2.848-.96-5.363-2.485-7.386-4.442-2.564-2.461-3.908-5.066-4.241-8.15-.123-1.153.062-3.133.346-3.601.099-.168 1.862.012 3.008.288z"/></symbol><symbol id="icon-advantages-2" viewBox="0 0 32 32"><path d="M29.626 21.411c-1.292-.458-2.381-.344-3.242.018.145-.877.47-1.832 1.169-2.481a1.065 1.065 0 1 0-1.448-1.561c-1.229 1.14-1.706 2.749-1.874 4.081a3.929 3.929 0 0 0-1.035-.308l-.023-.003 1.89-9.83a1.064 1.064 0 0 0-1.045-1.266h-.205c.094-.5.141-.997.138-1.47-.016-1.994-.903-3.495-2.374-4.017-1.409-.5-2.589-.35-3.507.066.146-.976.495-2.063 1.282-2.794A1.065 1.065 0 1 0 17.904.285c-1.32 1.226-1.815 2.966-1.981 4.387-.735-.348-1.644-.526-2.709-.33-1.094-1.571-2.612-2.295-4.09-1.941-1.451.348-2.358 1.115-2.9 1.962-.41-.899-.712-2.001-.452-3.036A1.065 1.065 0 0 0 3.708.799l-.002.007c-.439 1.746.095 3.475.73 4.758-1.016.138-2.118.65-3.049 1.866-.578.755-.773 1.698-.596 2.7a1.066 1.066 0 0 0-.672 1.204l-.001-.007 3.809 19.809c.096.502.535.864 1.046.864H20.21c.51 0 .949-.362 1.046-.864l.037-.195c.287.198.595.364.927.486 1.267.472 2.447.278 3.044.118.316.084.795.179 1.364.179.506 0 1.084-.075 1.68-.297 2.36-.879 3.615-3.839 3.596-6.178-.015-1.904-.865-3.34-2.275-3.839zm-6.951-9.22c-.491 4.705-4.452 7.909-9.971 7.909s-9.481-3.204-9.971-7.909h19.942zm-6.643-4.676a1.048 1.048 0 0 0 1.862 0 2.66 2.66 0 0 1 .76-.771l.01-.006c.629-.408 1.35-.46 2.203-.157.851.301.952 1.518.956 2.027a5.74 5.74 0 0 1-.19 1.453h-7.126c.236-1.19.094-2.492-.289-3.669.392.022.751.149 1.055.351l-.008-.005c.31.205.567.465.763.767l.006.01zM3.077 8.724c.55-.719 1.183-1.069 1.933-1.069h.002c.57 0 1.016.207 1.066.232.341.189.749.172 1.078-.037.332-.211.51-.592.481-.983-.006-.077-.115-1.894 1.983-2.397.877-.211 1.626.754 1.906 1.178.808 1.221 1.222 3.108.777 4.413H2.955c-.141-.443-.179-.943.122-1.336zM5.852 29.87 3.741 18.893c.138.132.28.262.428.388 2.208 1.901 5.239 2.948 8.535 2.948s6.328-1.047 8.535-2.948l.152-.134-.431 2.243-.061.02c-1.411.5-2.261 1.935-2.276 3.839-.01 1.165.297 2.483.898 3.622l-.192.998H5.852zm21.71-.438c-.943.351-1.881.017-1.916.004a1.034 1.034 0 0 0-.775.003l.007-.003c-.01.004-.96.352-1.917-.004-1.338-.499-2.223-2.556-2.21-4.166.004-.465.095-1.578.858-1.849.279-.107.601-.17.937-.175h.002c1.107 0 1.658.812 1.782 1.024a1.046 1.046 0 0 0 1.862 0c.156-.265.977-1.468 2.721-.849.763.271.854 1.383.858 1.85.013 1.609-.872 3.667-2.21 4.165z"/></symbol><symbol id="icon-advantages-1" viewBox="0 0 32 32"><path d="M8.093.144c-.349.188-.552.563-.552 1.006.006.813.209 1.556.614 2.2l.177.294-.337.381c-.381.425-.473.581-.644 1.088-.141.412-.154 1.162-.031 1.581.429 1.437 1.854 2.269 3.247 1.9.473-.125.762-.282 1.203-.657l.375-.312.35.175c.196.1.528.243.742.324l.381.138v.7c0 1.106.227 1.763.81 2.356s1.498.9 2.291.762c.564-.1 1.117-.381 1.491-.762.584-.594.811-1.251.811-2.356v-.7l.387-.138a9.56 9.56 0 0 0 .737-.325l.349-.175.374.312c.442.375.731.531 1.203.657 1.394.369 2.819-.463 3.248-1.9.123-.419.111-1.169-.031-1.581-.172-.507-.264-.663-.644-1.088l-.337-.381.178-.294c.405-.643.608-1.388.614-2.2 0-.444-.204-.819-.553-1.006l-.264-.144H8.356l-.264.144zm14.736 1.955c0 .019-.179.313-.399.662-.651 1.032-.626 1.256.239 2.17.314.331.602.662.645.737.233.463-.234 1.038-.749.919-.124-.026-.394-.243-.787-.631-.786-.775-1.056-.863-1.658-.518-.694.399-1.578.806-2.008.924-.608.175-.817.307-.976.637-.129.256-.141.363-.141 1.363 0 1.231-.05 1.431-.399 1.6-.252.125-.301.125-.553 0-.35-.169-.399-.369-.399-1.6 0-1-.013-1.107-.135-1.363-.166-.324-.374-.462-.982-.637-.528-.15-1.308-.493-1.738-.774-.405-.262-.762-.363-1.043-.313-.185.038-.369.181-.86.662-.405.394-.694.625-.817.65-.509.119-.976-.463-.742-.919.043-.075.332-.406.644-.737.865-.913.89-1.137.239-2.169-.221-.349-.399-.643-.399-.662 0-.025 2.929-.037 6.508-.037s6.508.013 6.508.037zM6.245 13.206c-.314.212-.485.512-.485.844 0 .225 3.119 16.925 3.229 17.275.055.194.282.425.522.55.227.125.387.125 6.809.125s6.582 0 6.809-.125c.239-.125.467-.356.522-.55.111-.35 3.229-17.05 3.229-17.275 0-.331-.172-.631-.485-.844l-.209-.144H6.454l-.209.144zm18.21 2.275c-.061.5-.418 1.587-.682 2.081-1.283 2.375-3.715 3.819-6.729 3.987-2.278.132-4.205-.331-5.82-1.393a7.057 7.057 0 0 1-2.247-2.402l-.018-.035c-.307-.544-.712-1.713-.774-2.238l-.043-.356h16.356l-.043.356zM10.15 21.919c2.634 1.775 6.569 2.244 9.885 1.169a10.708 10.708 0 0 0 3.18-1.687c.276-.219.294-.219.264-.082-.018.081-.38 1.994-.804 4.244s-.78 4.156-.798 4.232l-.031.143H10.794l-.031-.143c-.019-.075-.374-1.981-.798-4.232s-.786-4.163-.804-4.243c-.031-.138-.013-.138.264.081.16.125.492.356.724.518z"/></symbol><symbol id="icon-right-arrow" viewBox="0 0 17 17"><path d="M9.018 1.979c-.398.385-.518.624-.518.956 0 .372.226.664 1.886 2.338l1.886 1.899H.572l-.28.305c-.438.465-.412 1.58.04 2.02l.319.331h11.62l-1.885 1.9C8.726 13.4 8.5 13.692 8.5 14.064c0 .332.12.57.518.956.916.916.837.956 4.635-2.842C16.177 9.655 17 8.739 17 8.5c0-.24-.823-1.155-3.347-3.679C9.855 1.023 9.934 1.063 9.018 1.98z"/></symbol><symbol id="icon-menu" viewBox="0 0 32 32"><path d="M6.4 11.734V9.6h19.2v2.134H6.4zm0 5.332h19.2v-2.133H6.4v2.133zm0 5.334h19.2v-2.134H6.4V22.4z"/></symbol><symbol id="icon-cross" viewBox="0 0 32 32"><path d="M23.734 10.304 22.23 8.8l-5.963 5.962L10.305 8.8l-1.504 1.504 5.962 5.962-5.962 5.963 1.504 1.504 5.962-5.963 5.963 5.963 1.504-1.504-5.963-5.963 5.963-5.962z"/></symbol><symbol id="icon-arrow-short" viewBox="0 0 8 10" fill="none" xmlns="http://www.w3.org/2000/svg"><path d="m1.616 1 4.428 4-4.428 4" stroke="#D41443" stroke-width="2" stroke-linecap="round" stroke-linejoin="round"/></symbol><symbol id="icon-arrow-short-white" viewBox="0 0 8 10" fill="none" xmlns="http://www.w3.org/2000/svg"><path d="m1.616 1 4.428 4-4.428 4" stroke="#fff" stroke-width="2" stroke-linecap="round" stroke-linejoin="round"/></symbol></defs></svg>