<?xml version="1.0" standalone="no"?>
<!DOCTYPE svg PUBLIC "-//W3C//DTD SVG 20010904//EN"
 "http://www.w3.org/TR/2001/REC-SVG-20010904/DTD/svg10.dtd">
<svg version="1.0" xmlns="http://www.w3.org/2000/svg"
 width="700.000000pt" height="700.000000pt" viewBox="0 0 700.000000 700.000000"
 preserveAspectRatio="xMidYMid meet">
<metadata>
Created by potrace 1.14, written by Peter Selinger 2001-2017
</metadata>
<g transform="translate(0.000000,700.000000) scale(0.100000,-0.100000)"
fill="#000000" stroke="none">
<path d="M3160 6989 c-569 -57 -1224 -312 -1743 -681 -940 -668 -1447 -1713
-1414 -2913 17 -623 180 -1198 486 -1713 328 -555 839 -1017 1406 -1273 238
-109 375 -117 375 -25 0 75 -112 200 -365 408 -217 178 -316 292 -370 427 -43
104 -55 194 -65 461 -19 495 -69 679 -236 861 -118 128 -169 254 -180 444 -12
199 35 343 156 470 114 120 184 293 215 533 8 64 20 153 26 197 46 359 270
766 586 1065 186 177 369 304 598 416 323 157 623 224 950 211 738 -31 1505
-542 1831 -1222 98 -204 139 -354 164 -595 30 -284 103 -477 227 -605 110
-113 154 -235 154 -425 0 -207 -57 -362 -186 -500 -81 -86 -120 -153 -158
-275 -43 -137 -58 -254 -67 -530 -10 -282 -24 -384 -69 -500 -54 -141 -146
-248 -371 -434 -289 -238 -413 -394 -358 -449 20 -20 110 -14 189 13 89 30
251 112 380 190 505 308 950 815 1254 1430 360 727 464 1410 324 2125 -266
1361 -1403 2515 -2783 2824 -216 49 -374 67 -626 71 -129 2 -278 -1 -330 -6z"/>
<path d="M3350 5440 c-480 -102 -1040 -386 -1040 -528 0 -151 780 -432 1198
-432 265 0 687 109 976 251 170 84 236 148 214 210 -46 134 -629 414 -1035
498 -122 25 -200 26 -313 1z"/>
<path d="M1977 4378 c-54 -55 -91 -250 -86 -453 4 -106 7 -127 25 -152 47 -63
122 -90 319 -114 57 -7 465 -13 1098 -16 1313 -6 1558 4 1695 74 76 38 94 74
100 202 6 122 -12 283 -38 355 -26 69 -73 112 -134 121 -76 12 -176 -18 -377
-111 -75 -35 -176 -77 -225 -93 -481 -161 -1254 -157 -1713 9 -58 21 -156 61
-218 89 -132 60 -263 100 -355 108 -61 5 -68 4 -91 -19z"/>
<path d="M2165 3199 c-306 -7 -466 -20 -552 -44 -43 -13 -56 -22 -82 -62 -17
-25 -31 -59 -31 -73 0 -88 143 -150 430 -185 228 -27 507 -35 1293 -35 l777 0
0 -297 c0 -316 10 -427 50 -555 85 -276 230 -76 230 320 0 59 5 158 10 220 19
239 82 290 395 322 355 36 511 65 630 120 103 46 121 89 48 110 -345 98 -2115
187 -3198 159z"/>
<path d="M1893 2003 c5 -404 8 -436 61 -577 32 -83 70 -139 139 -203 152 -138
395 -205 855 -234 255 -16 1140 -6 1317 15 609 71 808 232 854 691 21 205 10
402 -30 529 -39 127 -130 181 -234 141 -96 -36 -139 -135 -154 -350 -14 -201
-61 -316 -176 -431 -44 -45 -83 -72 -145 -102 -102 -48 -163 -62 -278 -62
-171 0 -310 57 -432 179 -104 102 -157 210 -196 396 -35 173 -57 229 -109 281
-91 91 -211 104 -958 104 l-519 0 5 -377z"/>
<path d="M3160 549 c-188 -9 -307 -31 -360 -69 -79 -57 -57 -205 45 -299 139
-126 409 -191 740 -177 287 12 501 75 615 182 60 56 80 97 80 163 0 131 -137
183 -530 201 -231 11 -338 10 -590 -1z"/>
</g>
</svg>
